<svg width="18" height="18" viewBox="0 0 18 18" fill="none" xmlns="http://www.w3.org/2000/svg">
<path d="M4.368 14C3.4912 14 2.7232 13.7952 2.064 13.3856C1.4112 12.97 0.9024 12.409 0.5376 11.7026C0.1792 10.9902 0 10.1888 0 9.29831V8.7106C0 7.82606 0.1792 7.0276 0.5376 6.31523C0.9024 5.60285 1.408 5.03888 2.0544 4.62333C2.7072 4.20778 3.472 4 4.3488 4C5.0464 4 5.68 4.14841 6.2496 4.44524C6.8256 4.73612 7.3408 5.13387 7.7952 5.63847C8.2496 6.13713 8.6496 6.69219 8.9952 7.30365C9.3344 6.69219 9.728 6.13713 10.176 5.63847C10.6304 5.1398 11.1456 4.74206 11.7216 4.44524C12.2976 4.14841 12.9408 4 13.6512 4C14.5152 4 15.2736 4.21075 15.9264 4.63224C16.5792 5.04779 17.088 5.61175 17.4528 6.32413C17.8176 7.03057 18 7.82606 18 8.7106V9.29831C18 10.1888 17.8176 10.9902 17.4528 11.7026C17.088 12.409 16.5792 12.97 15.9264 13.3856C15.2736 13.7952 14.5088 14 13.632 14C12.9216 14 12.2784 13.8546 11.7024 13.5637C11.1328 13.2668 10.624 12.8691 10.176 12.3704C9.728 11.8718 9.3344 11.3137 8.9952 10.6963C8.6496 11.3137 8.2496 11.8718 7.7952 12.3704C7.3472 12.8691 6.8384 13.2668 6.2688 13.5637C5.6992 13.8546 5.0656 14 4.368 14ZM4.368 12.6287C4.8096 12.6287 5.2288 12.5129 5.6256 12.2814C6.0224 12.0439 6.3808 11.7471 6.7008 11.3909C7.0272 11.0288 7.2992 10.6518 7.5168 10.26C7.7408 9.86227 7.8944 9.50312 7.9776 9.18255V8.80855C7.888 8.49392 7.7312 8.14366 7.5072 7.75779C7.2832 7.36598 7.008 6.98902 6.6816 6.62689C6.3616 6.26477 6.0032 5.96794 5.6064 5.73642C5.2096 5.49896 4.7904 5.38023 4.3488 5.38023C3.5424 5.38023 2.9312 5.68893 2.5152 6.30632C2.0992 6.91778 1.8912 7.7192 1.8912 8.7106V9.29831C1.8912 10.3075 2.0992 11.1149 2.5152 11.7204C2.9376 12.3259 3.5552 12.6287 4.368 12.6287ZM13.632 12.6287C14.432 12.6287 15.0432 12.3259 15.4656 11.7204C15.888 11.1089 16.0992 10.3016 16.0992 9.29831V8.7106C16.0992 7.7192 15.888 6.91778 15.4656 6.30632C15.0432 5.68893 14.4384 5.38023 13.6512 5.38023C13.2096 5.38023 12.7872 5.49599 12.384 5.72752C11.9808 5.95904 11.616 6.25586 11.2896 6.61799C10.9696 6.98011 10.6976 7.35708 10.4736 7.74889C10.2496 8.13476 10.0928 8.48798 10.0032 8.80855V9.18255C10.0928 9.50312 10.2464 9.86227 10.464 10.26C10.688 10.6518 10.96 11.0288 11.28 11.3909C11.6064 11.753 11.968 12.0499 12.3648 12.2814C12.768 12.5129 13.1904 12.6287 13.632 12.6287Z" fill="#24125F"/>
</svg>
